<svg xmlns="http://www.w3.org/2000/svg" viewBox="0 0 80 80" fill="currentColor">
  <!-- Boule -->
  <circle cx="40" cy="40" r="36"/>
  <!-- Étoiles (4 étoiles = boule de Son Goku) -->
  <polygon points="40,14 42,20 48,20 43,24 45,30 40,26 35,30 37,24 32,20 38,20" fill="white" opacity="0.9"/>
  <polygon points="28,30 30,36 36,36 31,40 33,46 28,42 23,46 25,40 20,36 26,36" fill="white" opacity="0.9"/>
  <polygon points="52,30 54,36 60,36 55,40 57,46 52,42 47,46 49,40 44,36 50,36" fill="white" opacity="0.9"/>
  <polygon points="40,44 42,50 48,50 43,54 45,60 40,56 35,60 37,54 32,50 38,50" fill="white" opacity="0.9"/>
  <!-- Reflet -->
  <ellipse cx="28" cy="24" rx="6" ry="4" fill="white" opacity="0.2" transform="rotate(-30 28 24)"/>
</svg>
